<svg width="451" height="452" viewBox="0 0 451 452" fill="none" xmlns="http://www.w3.org/2000/svg">
<path d="M210.362 450.919C174.408 447.239 149.913 440.301 122.054 426.003C61.9205 395.096 17.8718 336.96 4.41538 270.729C-1.47179 241.608 -1.47179 209.439 4.41538 180.319C17.8718 114.088 61.9205 55.952 122.054 25.0443C155.379 7.90839 187.969 0.128906 225.605 0.128906C255.882 0.128906 281.218 4.85968 308.131 15.4776C366.687 38.711 412.418 84.4417 435.651 142.998C446.269 169.911 451 195.247 451 225.524C451 255.801 446.269 281.137 435.651 308.049C405.585 383.847 338.723 436.832 257.669 448.921C247.156 450.498 218.246 451.76 210.362 450.919ZM161.792 405.503C164.841 404.347 222.451 370.075 289.733 329.18C398.646 263.055 412.944 254.014 418.621 248.126C427.556 239.085 429.974 232.778 429.974 218.585C430.079 208.493 429.974 207.757 426.085 200.083C423.456 194.721 420.513 190.516 417.044 187.467C411.367 182.421 167.259 48.0674 155.905 43.8622C150.438 41.7597 147.915 41.4443 139.926 41.7597C132.041 42.0751 129.308 42.7058 123.421 45.4392C111.015 51.2212 102.29 61.9443 99.4513 74.6648C98.0846 80.552 103.972 360.088 105.654 371.337C108.072 387.842 119.321 400.667 135.721 405.924C142.133 407.921 155.274 407.711 161.792 405.503Z" fill="#FF4949"/>
<path d="M158.533 360.194C150.544 357.46 146.023 353.255 141.923 344.635L139.295 339.273L136.667 225.84C134.144 119.45 134.144 112.196 135.721 106.835C140.031 93.063 155.8 84.1271 168.836 88.1219C176.405 90.4348 368.474 195.773 373.1 200.189C384.454 210.807 385.085 227.312 374.677 238.455C371.313 242.03 346.187 257.799 274.49 301.322C221.926 333.281 176.826 359.983 174.197 360.825C168.1 362.612 165.262 362.507 158.533 360.194Z" fill="white"/>
</svg>
