<svg width="451" height="451" viewBox="0 0 451 451" fill="none" xmlns="http://www.w3.org/2000/svg">
<path d="M210.28 450.173C174.406 446.502 149.965 439.58 122.168 425.316C62.168 394.481 18.2169 336.481 4.79036 270.406C-1.08377 241.354 -1.08377 209.26 4.79036 180.208C18.2169 114.133 62.168 56.1332 122.168 25.2981C155.42 8.20239 187.937 0.441162 225.49 0.441162C255.699 0.441162 280.979 5.16083 307.832 15.7539C366.259 38.9327 411.888 84.5561 435.07 142.975C445.664 169.825 450.385 195.101 450.385 225.307C450.385 255.513 445.664 280.789 435.07 307.639C405.07 383.259 338.357 436.119 257.483 448.18C246.993 449.753 218.147 451.012 210.28 450.173ZM161.818 404.864C164.86 403.71 222.343 369.519 289.476 328.72C398.147 262.75 412.413 253.73 418.077 247.857C426.993 238.837 429.406 232.544 429.406 218.385C429.511 208.316 429.406 207.582 425.525 199.926C422.902 194.577 419.965 190.382 416.504 187.34C410.839 182.306 167.273 48.2671 155.944 44.0719C150.49 41.9742 147.972 41.6596 140 41.9742C132.133 42.2889 129.406 42.9182 123.532 45.6451C111.154 51.4136 102.448 62.1115 99.6155 74.8021C98.2519 80.6755 104.126 359.555 105.804 370.778C108.217 387.244 119.441 400.04 135.804 405.284C142.203 407.276 155.315 407.067 161.818 404.864Z" fill="#F2F2F2"/>
<path d="M158.567 359.66C150.595 356.933 146.084 352.738 141.993 344.138L139.371 338.789L136.748 225.622C134.231 119.482 134.231 112.245 135.804 106.896C140.105 93.1565 155.839 84.2416 168.846 88.2271C176.399 90.5345 368.042 195.626 372.657 200.031C383.986 210.624 384.616 227.09 374.231 238.208C370.874 241.774 345.804 257.506 274.266 300.927C221.818 332.811 176.818 359.451 174.196 360.29C168.112 362.073 165.28 361.968 158.567 359.66Z" fill="#F2F2F2"/>
</svg>
