<svg width="831" height="831" viewBox="0 0 831 831" fill="none" xmlns="http://www.w3.org/2000/svg">
<path d="M298.132 746.881L298.13 746.882C292.118 748.918 283.056 750.032 274.023 750.177C264.989 750.322 255.975 749.499 250.06 747.657L250.075 747.609L250.06 747.657C219.824 737.967 199.084 714.323 194.625 683.896C194.237 681.301 193.729 670.984 193.141 654.899C192.552 638.813 191.884 616.953 191.177 591.271C189.764 539.906 188.196 473.249 186.804 406.901C185.412 340.553 184.195 274.514 183.484 224.383C183.128 199.318 182.899 178.23 182.837 163.07C182.806 155.489 182.817 149.39 182.875 145.017C182.905 142.831 182.945 141.075 182.999 139.781C183.052 138.49 183.117 137.653 183.197 137.309C188.431 113.858 204.519 94.0899 227.39 83.4313L227.41 83.473L227.39 83.4312C232.815 80.9128 236.79 79.3616 241.226 78.3679C245.662 77.3742 250.556 76.9383 257.821 76.6478C265.182 76.3572 270.029 76.357 274.295 76.9145C278.562 77.472 282.246 78.5872 287.284 80.5247M298.132 746.881L287.266 80.5714M298.132 746.881C298.486 746.747 299.233 746.373 300.349 745.776C301.466 745.178 302.955 744.353 304.796 743.315C308.479 741.237 313.571 738.301 319.91 734.603C332.589 727.207 350.259 716.76 371.627 704.025C414.363 678.556 471.894 643.936 533.88 606.265C634.22 545.352 690.977 510.731 723.955 489.983C756.932 469.236 766.139 462.357 771.374 456.929M298.132 746.881L771.338 456.894M287.284 80.5247L287.266 80.5714M287.284 80.5247C287.284 80.5246 287.284 80.5245 287.284 80.5245L287.266 80.5714M287.284 80.5247C288.595 81.0103 291.581 82.4325 296.025 84.6725C300.472 86.9135 306.381 89.9743 313.542 93.7383C327.864 101.266 347.191 111.607 369.827 123.827C415.1 148.267 473.612 180.225 531.796 212.231C589.981 244.237 647.839 276.291 691.804 300.925C713.787 313.242 732.297 323.704 745.638 331.377C752.308 335.213 757.686 338.353 761.561 340.679C763.498 341.842 765.06 342.801 766.219 343.543C767.376 344.284 768.136 344.809 768.466 345.102C774.865 350.725 780.292 358.478 785.136 368.359C788.719 375.427 790.563 379.307 791.484 383.745C792.406 388.182 792.406 393.175 792.309 402.469C792.309 415.545 791.195 424.994 788.02 433.258C784.844 441.523 779.609 448.598 771.374 456.929M287.266 80.5714C308.187 88.3186 757.973 335.843 768.433 345.14C774.825 350.757 780.249 358.504 785.092 368.382C792.259 382.52 792.452 383.876 792.259 402.469C792.259 428.616 787.803 440.237 771.338 456.894M771.374 456.929L771.338 456.894M771.374 456.929C771.374 456.929 771.374 456.929 771.374 456.929L771.338 456.894M387.612 830.455C321.369 823.677 276.242 810.895 224.916 784.558C114.129 727.622 32.976 620.53 8.18466 498.525C-2.66156 444.882 -2.66156 385.622 8.18467 331.979C32.976 209.975 114.129 102.882 224.916 45.9469C286.314 14.3806 346.355 0.05 415.694 0.05C471.475 0.05 518.152 8.76456 567.735 28.324C675.616 71.1224 759.868 155.364 802.672 263.231C822.234 312.807 830.95 359.478 830.95 415.252C830.95 471.027 822.234 517.697 802.672 567.274C747.279 706.901 624.097 804.505 474.767 826.775C465.084 828.228 446.927 829.535 429.372 830.285C411.817 831.036 394.871 831.229 387.612 830.455Z" fill="#FF4949"/>
<path d="M298.132 746.881L298.13 746.882C292.118 748.918 283.056 750.032 274.023 750.177C264.989 750.322 255.975 749.499 250.06 747.657L250.075 747.609L250.06 747.657C219.824 737.967 199.084 714.323 194.625 683.896C194.237 681.301 193.729 670.984 193.141 654.899C192.552 638.813 191.884 616.953 191.177 591.271C189.764 539.906 188.196 473.249 186.804 406.901C185.412 340.553 184.195 274.514 183.484 224.383C183.128 199.318 182.899 178.23 182.837 163.07C182.806 155.489 182.817 149.39 182.875 145.017C182.905 142.831 182.945 141.075 182.999 139.781C183.052 138.49 183.117 137.653 183.197 137.309C188.431 113.858 204.519 94.0899 227.39 83.4313L227.41 83.473L227.39 83.4312C232.815 80.9128 236.79 79.3616 241.226 78.3679C245.662 77.3742 250.556 76.9383 257.821 76.6478C265.182 76.3572 270.029 76.357 274.295 76.9145C278.562 77.472 282.246 78.5872 287.284 80.5247M298.132 746.881L287.266 80.5714M298.132 746.881C298.486 746.747 299.233 746.373 300.349 745.776C301.466 745.178 302.955 744.353 304.796 743.315C308.479 741.237 313.571 738.301 319.91 734.603C332.589 727.207 350.259 716.76 371.627 704.025C414.363 678.556 471.894 643.936 533.88 606.265C634.22 545.352 690.977 510.731 723.955 489.983C756.932 469.236 766.139 462.357 771.374 456.929M298.132 746.881L771.338 456.894M287.284 80.5247L287.266 80.5714M287.284 80.5247C287.284 80.5246 287.284 80.5245 287.284 80.5245L287.266 80.5714M287.284 80.5247C288.595 81.0103 291.581 82.4325 296.025 84.6725C300.472 86.9135 306.381 89.9743 313.542 93.7383C327.864 101.266 347.191 111.607 369.827 123.827C415.1 148.267 473.612 180.225 531.796 212.231C589.981 244.237 647.839 276.291 691.804 300.925C713.787 313.242 732.297 323.704 745.638 331.377C752.308 335.213 757.686 338.353 761.561 340.679C763.498 341.842 765.06 342.801 766.219 343.543C767.376 344.284 768.136 344.809 768.466 345.102C774.865 350.725 780.292 358.478 785.136 368.359C788.719 375.427 790.563 379.307 791.484 383.745C792.406 388.182 792.406 393.175 792.309 402.469C792.309 415.545 791.195 424.994 788.02 433.258C784.844 441.523 779.609 448.598 771.374 456.929M287.266 80.5714C308.187 88.3186 757.973 335.843 768.433 345.14C774.825 350.757 780.249 358.504 785.092 368.382C792.259 382.52 792.452 383.876 792.259 402.469C792.259 428.616 787.803 440.237 771.338 456.894M771.374 456.929L771.338 456.894M771.374 456.929C771.374 456.929 771.374 456.929 771.374 456.929L771.338 456.894M387.612 830.455C321.369 823.677 276.242 810.895 224.916 784.558C114.129 727.622 32.976 620.53 8.18466 498.525C-2.66156 444.882 -2.66156 385.622 8.18467 331.979C32.976 209.975 114.129 102.882 224.916 45.9469C286.314 14.3806 346.355 0.05 415.694 0.05C471.475 0.05 518.152 8.76456 567.735 28.324C675.616 71.1224 759.868 155.364 802.672 263.231C822.234 312.807 830.95 359.478 830.95 415.252C830.95 471.027 822.234 517.697 802.672 567.274C747.279 706.901 624.097 804.505 474.767 826.775C465.084 828.228 446.927 829.535 429.372 830.285C411.817 831.036 394.871 831.229 387.612 830.455Z" stroke="url(#paint0_linear)" stroke-opacity="0.5" stroke-width="0.1"/>
<path d="M298.132 746.881L298.13 746.882C292.118 748.918 283.056 750.032 274.023 750.177C264.989 750.322 255.975 749.499 250.06 747.657L250.075 747.609L250.06 747.657C219.824 737.967 199.084 714.323 194.625 683.896C194.237 681.301 193.729 670.984 193.141 654.899C192.552 638.813 191.884 616.953 191.177 591.271C189.764 539.906 188.196 473.249 186.804 406.901C185.412 340.553 184.195 274.514 183.484 224.383C183.128 199.318 182.899 178.23 182.837 163.07C182.806 155.489 182.817 149.39 182.875 145.017C182.905 142.831 182.945 141.075 182.999 139.781C183.052 138.49 183.117 137.653 183.197 137.309C188.431 113.858 204.519 94.0899 227.39 83.4313L227.41 83.473L227.39 83.4312C232.815 80.9128 236.79 79.3616 241.226 78.3679C245.662 77.3742 250.556 76.9383 257.821 76.6478C265.182 76.3572 270.029 76.357 274.295 76.9145C278.562 77.472 282.246 78.5872 287.284 80.5247M298.132 746.881L287.266 80.5714M298.132 746.881C298.486 746.747 299.233 746.373 300.349 745.776C301.466 745.178 302.955 744.353 304.796 743.315C308.479 741.237 313.571 738.301 319.91 734.603C332.589 727.207 350.259 716.76 371.627 704.025C414.363 678.556 471.894 643.936 533.88 606.265C634.22 545.352 690.977 510.731 723.955 489.983C756.932 469.236 766.139 462.357 771.374 456.929M298.132 746.881L771.338 456.894M287.284 80.5247L287.266 80.5714M287.284 80.5247C287.284 80.5246 287.284 80.5245 287.284 80.5245L287.266 80.5714M287.284 80.5247C288.595 81.0103 291.581 82.4325 296.025 84.6725C300.472 86.9135 306.381 89.9743 313.542 93.7383C327.864 101.266 347.191 111.607 369.827 123.827C415.1 148.267 473.612 180.225 531.796 212.231C589.981 244.237 647.839 276.291 691.804 300.925C713.787 313.242 732.297 323.704 745.638 331.377C752.308 335.213 757.686 338.353 761.561 340.679C763.498 341.842 765.06 342.801 766.219 343.543C767.376 344.284 768.136 344.809 768.466 345.102C774.865 350.725 780.292 358.478 785.136 368.359C788.719 375.427 790.563 379.307 791.484 383.745C792.406 388.182 792.406 393.175 792.309 402.469C792.309 415.545 791.195 424.994 788.02 433.258C784.844 441.523 779.609 448.598 771.374 456.929M287.266 80.5714C308.187 88.3186 757.973 335.843 768.433 345.14C774.825 350.757 780.249 358.504 785.092 368.382C792.259 382.52 792.452 383.876 792.259 402.469C792.259 428.616 787.803 440.237 771.338 456.894M771.374 456.929L771.338 456.894M771.374 456.929C771.374 456.929 771.374 456.929 771.374 456.929L771.338 456.894M387.612 830.455C321.369 823.677 276.242 810.895 224.916 784.558C114.129 727.622 32.976 620.53 8.18466 498.525C-2.66156 444.882 -2.66156 385.622 8.18467 331.979C32.976 209.975 114.129 102.882 224.916 45.9469C286.314 14.3806 346.355 0.05 415.694 0.05C471.475 0.05 518.152 8.76456 567.735 28.324C675.616 71.1224 759.868 155.364 802.672 263.231C822.234 312.807 830.95 359.478 830.95 415.252C830.95 471.027 822.234 517.697 802.672 567.274C747.279 706.901 624.097 804.505 474.767 826.775C465.084 828.228 446.927 829.535 429.372 830.285C411.817 831.036 394.871 831.229 387.612 830.455Z" stroke="url(#paint1_linear)" stroke-width="0.1"/>
<path d="M298.132 746.881L298.13 746.882C292.118 748.918 283.056 750.032 274.023 750.177C264.989 750.322 255.975 749.499 250.06 747.657L250.075 747.609L250.06 747.657C219.824 737.967 199.084 714.323 194.625 683.896C194.237 681.301 193.729 670.984 193.141 654.899C192.552 638.813 191.884 616.953 191.177 591.271C189.764 539.906 188.196 473.249 186.804 406.901C185.412 340.553 184.195 274.514 183.484 224.383C183.128 199.318 182.899 178.23 182.837 163.07C182.806 155.489 182.817 149.39 182.875 145.017C182.905 142.831 182.945 141.075 182.999 139.781C183.052 138.49 183.117 137.653 183.197 137.309C188.431 113.858 204.519 94.0899 227.39 83.4313L227.41 83.473L227.39 83.4312C232.815 80.9128 236.79 79.3616 241.226 78.3679C245.662 77.3742 250.556 76.9383 257.821 76.6478C265.182 76.3572 270.029 76.357 274.295 76.9145C278.562 77.472 282.246 78.5872 287.284 80.5247M298.132 746.881L287.266 80.5714M298.132 746.881C298.486 746.747 299.233 746.373 300.349 745.776C301.466 745.178 302.955 744.353 304.796 743.315C308.479 741.237 313.571 738.301 319.91 734.603C332.589 727.207 350.259 716.76 371.627 704.025C414.363 678.556 471.894 643.936 533.88 606.265C634.22 545.352 690.977 510.731 723.955 489.983C756.932 469.236 766.139 462.357 771.374 456.929M298.132 746.881L771.338 456.894M287.284 80.5247L287.266 80.5714M287.284 80.5247C287.284 80.5246 287.284 80.5245 287.284 80.5245L287.266 80.5714M287.284 80.5247C288.595 81.0103 291.581 82.4325 296.025 84.6725C300.472 86.9135 306.381 89.9743 313.542 93.7383C327.864 101.266 347.191 111.607 369.827 123.827C415.1 148.267 473.612 180.225 531.796 212.231C589.981 244.237 647.839 276.291 691.804 300.925C713.787 313.242 732.297 323.704 745.638 331.377C752.308 335.213 757.686 338.353 761.561 340.679C763.498 341.842 765.06 342.801 766.219 343.543C767.376 344.284 768.136 344.809 768.466 345.102C774.865 350.725 780.292 358.478 785.136 368.359C788.719 375.427 790.563 379.307 791.484 383.745C792.406 388.182 792.406 393.175 792.309 402.469C792.309 415.545 791.195 424.994 788.02 433.258C784.844 441.523 779.609 448.598 771.374 456.929M287.266 80.5714C308.187 88.3186 757.973 335.843 768.433 345.14C774.825 350.757 780.249 358.504 785.092 368.382C792.259 382.52 792.452 383.876 792.259 402.469C792.259 428.616 787.803 440.237 771.338 456.894M771.374 456.929L771.338 456.894M771.374 456.929C771.374 456.929 771.374 456.929 771.374 456.929L771.338 456.894M387.612 830.455C321.369 823.677 276.242 810.895 224.916 784.558C114.129 727.622 32.976 620.53 8.18466 498.525C-2.66156 444.882 -2.66156 385.622 8.18467 331.979C32.976 209.975 114.129 102.882 224.916 45.9469C286.314 14.3806 346.355 0.05 415.694 0.05C471.475 0.05 518.152 8.76456 567.735 28.324C675.616 71.1224 759.868 155.364 802.672 263.231C822.234 312.807 830.95 359.478 830.95 415.252C830.95 471.027 822.234 517.697 802.672 567.274C747.279 706.901 624.097 804.505 474.767 826.775C465.084 828.228 446.927 829.535 429.372 830.285C411.817 831.036 394.871 831.229 387.612 830.455Z" stroke="url(#paint2_linear)" stroke-opacity="0.3" stroke-width="0.1"/>
<path d="M298.132 746.881L298.13 746.882C292.118 748.918 283.056 750.032 274.023 750.177C264.989 750.322 255.975 749.499 250.06 747.657L250.075 747.609L250.06 747.657C219.824 737.967 199.084 714.323 194.625 683.896C194.237 681.301 193.729 670.984 193.141 654.899C192.552 638.813 191.884 616.953 191.177 591.271C189.764 539.906 188.196 473.249 186.804 406.901C185.412 340.553 184.195 274.514 183.484 224.383C183.128 199.318 182.899 178.23 182.837 163.07C182.806 155.489 182.817 149.39 182.875 145.017C182.905 142.831 182.945 141.075 182.999 139.781C183.052 138.49 183.117 137.653 183.197 137.309C188.431 113.858 204.519 94.0899 227.39 83.4313L227.41 83.473L227.39 83.4312C232.815 80.9128 236.79 79.3616 241.226 78.3679C245.662 77.3742 250.556 76.9383 257.821 76.6478C265.182 76.3572 270.029 76.357 274.295 76.9145C278.562 77.472 282.246 78.5872 287.284 80.5247M298.132 746.881L287.266 80.5714M298.132 746.881C298.486 746.747 299.233 746.373 300.349 745.776C301.466 745.178 302.955 744.353 304.796 743.315C308.479 741.237 313.571 738.301 319.91 734.603C332.589 727.207 350.259 716.76 371.627 704.025C414.363 678.556 471.894 643.936 533.88 606.265C634.22 545.352 690.977 510.731 723.955 489.983C756.932 469.236 766.139 462.357 771.374 456.929M298.132 746.881L771.338 456.894M287.284 80.5247L287.266 80.5714M287.284 80.5247C287.284 80.5246 287.284 80.5245 287.284 80.5245L287.266 80.5714M287.284 80.5247C288.595 81.0103 291.581 82.4325 296.025 84.6725C300.472 86.9135 306.381 89.9743 313.542 93.7383C327.864 101.266 347.191 111.607 369.827 123.827C415.1 148.267 473.612 180.225 531.796 212.231C589.981 244.237 647.839 276.291 691.804 300.925C713.787 313.242 732.297 323.704 745.638 331.377C752.308 335.213 757.686 338.353 761.561 340.679C763.498 341.842 765.06 342.801 766.219 343.543C767.376 344.284 768.136 344.809 768.466 345.102C774.865 350.725 780.292 358.478 785.136 368.359C788.719 375.427 790.563 379.307 791.484 383.745C792.406 388.182 792.406 393.175 792.309 402.469C792.309 415.545 791.195 424.994 788.02 433.258C784.844 441.523 779.609 448.598 771.374 456.929M287.266 80.5714C308.187 88.3186 757.973 335.843 768.433 345.14C774.825 350.757 780.249 358.504 785.092 368.382C792.259 382.52 792.452 383.876 792.259 402.469C792.259 428.616 787.803 440.237 771.338 456.894M771.374 456.929L771.338 456.894M771.374 456.929C771.374 456.929 771.374 456.929 771.374 456.929L771.338 456.894M387.612 830.455C321.369 823.677 276.242 810.895 224.916 784.558C114.129 727.622 32.976 620.53 8.18466 498.525C-2.66156 444.882 -2.66156 385.622 8.18467 331.979C32.976 209.975 114.129 102.882 224.916 45.9469C286.314 14.3806 346.355 0.05 415.694 0.05C471.475 0.05 518.152 8.76456 567.735 28.324C675.616 71.1224 759.868 155.364 802.672 263.231C822.234 312.807 830.95 359.478 830.95 415.252C830.95 471.027 822.234 517.697 802.672 567.274C747.279 706.901 624.097 804.505 474.767 826.775C465.084 828.228 446.927 829.535 429.372 830.285C411.817 831.036 394.871 831.229 387.612 830.455Z" stroke="url(#paint3_linear)" stroke-width="0.1"/>
<defs>
<linearGradient id="paint0_linear" x1="415.5" y1="0" x2="415.5" y2="831" gradientUnits="userSpaceOnUse">
<stop offset="0.380208" stop-color="#B2B7C1"/>
<stop offset="1" stop-color="#1355D5"/>
</linearGradient>
<linearGradient id="paint1_linear" x1="415.5" y1="0" x2="415.5" y2="831" gradientUnits="userSpaceOnUse">
<stop stop-color="#1E56A0"/>
<stop offset="1" stop-color="white" stop-opacity="0"/>
</linearGradient>
<linearGradient id="paint2_linear" x1="415.5" y1="0" x2="415.5" y2="831" gradientUnits="userSpaceOnUse">
<stop stop-color="white"/>
<stop offset="1" stop-color="white" stop-opacity="0"/>
</linearGradient>
<linearGradient id="paint3_linear" x1="415.5" y1="0" x2="415.5" y2="831" gradientUnits="userSpaceOnUse">
<stop stop-color="white"/>
<stop offset="1" stop-color="white" stop-opacity="0"/>
</linearGradient>
</defs>
</svg>
